<?xml version="1.0" standalone="no"?>
<!DOCTYPE svg PUBLIC "-//W3C//DTD SVG 20010904//EN"
 "http://www.w3.org/TR/2001/REC-SVG-20010904/DTD/svg10.dtd">
<svg version="1.0" xmlns="http://www.w3.org/2000/svg"
 width="367.000000pt" height="367.000000pt" viewBox="0 0 367.000000 367.000000"
 preserveAspectRatio="xMidYMid meet">
<metadata>
Created by potrace 1.11, written by Peter Selinger 2001-2013
</metadata>
<g transform="translate(0.000000,367.000000) scale(0.100000,-0.100000)"
fill="#000000" stroke="none">
<path d="M1801 3278 c-56 -44 -25 -138 45 -138 70 0 111 83 64 130 -11 11 -23
21 -27 21 -37 6 -64 2 -82 -13z"/>
<path d="M1539 3250 c-48 -14 -105 -43 -216 -106 -43 -25 -42 -47 4 -63 45
-17 97 -20 157 -11 25 4 43 3 40 -2 -3 -4 -13 -8 -22 -8 -13 -1 -9 -7 12 -25
24 -19 39 -23 75 -20 28 2 38 1 27 -4 -18 -7 -17 -9 10 -28 16 -12 43 -23 59
-25 18 -2 30 -9 30 -17 0 -8 6 -16 13 -19 7 -2 10 2 7 10 -5 12 4 14 38 12 57
-4 71 5 58 38 -7 20 -19 28 -48 33 -44 7 -77 32 -87 63 -4 11 -8 51 -8 88 -2
103 -33 120 -149 84z"/>
<path d="M2050 3263 c-29 -12 -39 -39 -40 -106 0 -47 -6 -78 -17 -98 -17 -29
-74 -56 -92 -44 -6 3 -17 -8 -26 -24 -18 -36 -19 -55 -2 -45 7 5 6 1 -3 -10
-34 -43 -8 -81 29 -42 19 20 20 24 7 29 -31 12 -15 22 34 21 27 -1 50 3 50 7
0 5 10 9 23 9 27 0 77 21 77 33 0 5 5 5 10 2 6 -3 10 -4 10 0 0 3 -10 10 -22
16 -18 7 -13 9 23 5 37 -4 50 -1 74 19 25 22 23 31 -7 26 -5 0 -8 4 -8 10 0 6
9 8 23 3 43 -14 163 -7 191 11 14 10 26 22 26 29 -1 21 -172 114 -259 140 -57
17 -76 18 -101 9z"/>
<path d="M1797 3122 c3 -7 17 -19 32 -27 19 -10 21 -14 9 -15 -21 0 -24 -36
-6 -75 15 -32 26 -32 40 3 13 33 13 63 -2 72 -7 4 -2 13 14 24 39 25 32 32
-33 31 -43 0 -57 -3 -54 -13z"/>
<path d="M1210 3093 c-53 -17 -194 -53 -230 -58 -14 -2 -38 -7 -55 -10 -16 -3
-58 -10 -92 -16 -35 -6 -63 -15 -63 -19 0 -5 12 -17 28 -28 65 -46 186 -47
353 -2 24 7 51 13 59 15 8 2 39 12 68 23 33 13 52 16 49 9 -2 -7 -8 -12 -13
-13 -19 -2 -69 -17 -79 -24 -5 -5 -23 -11 -40 -14 -16 -3 -48 -10 -70 -16 -22
-5 -55 -13 -74 -16 -19 -3 -44 -10 -57 -14 -12 -5 -25 -6 -28 -3 -3 4 -6 2 -6
-4 0 -18 111 -40 185 -37 63 3 141 19 188 39 9 4 17 3 17 -3 0 -8 -78 -33
-145 -45 -16 -3 -12 -7 18 -21 61 -27 146 -23 223 11 21 9 41 17 44 17 8 1
113 63 133 78 17 13 15 15 -22 35 l-40 22 -86 -44 c-47 -24 -94 -46 -103 -49
-30 -10 18 23 73 51 77 39 79 42 48 69 -34 29 -45 30 -100 3 -24 -12 -47 -19
-50 -15 -3 3 7 11 23 17 l29 12 -49 9 c-31 6 -58 18 -70 32 -20 22 -23 22 -66
9z"/>
<path d="M2432 3096 c-21 -33 -64 -46 -157 -50 -51 -1 -102 -33 -83 -51 27
-25 178 -96 233 -110 102 -24 202 -25 270 -1 49 16 45 20 -41 38 -110 23 -113
24 -146 37 -16 6 -28 7 -28 4 0 -4 -5 -2 -12 5 -7 7 -20 12 -30 12 -10 0 -18
5 -18 10 0 12 27 13 34 1 3 -5 18 -11 33 -14 16 -3 46 -10 68 -17 80 -22 197
-38 243 -33 40 4 122 41 122 55 0 18 -6 22 -35 25 -16 2 -57 8 -90 14 -33 6
-71 13 -85 15 -14 3 -32 7 -40 9 -8 2 -28 7 -45 9 -16 3 -65 17 -108 30 -56
17 -79 21 -85 12z m-59 -78 c20 -7 37 -17 37 -21 0 -11 -36 0 -80 25 -36 20
-23 18 43 -4z"/>
<path d="M2102 2977 c-23 -12 -42 -24 -42 -27 0 -8 144 -84 206 -109 54 -21
150 -31 172 -18 6 5 12 6 12 2 0 -3 15 2 33 12 32 17 32 17 7 21 -60 8 -142
37 -240 86 l-106 53 -42 -20z"/>
<path d="M1696 2941 c-3 -5 -15 -7 -26 -4 -11 3 -39 -7 -67 -23 -64 -38 -160
-84 -175 -84 -26 0 17 -20 44 -20 19 0 34 9 50 30 12 17 28 30 35 30 7 0 13 4
13 9 0 11 85 41 115 41 13 0 22 6 22 15 0 17 -3 19 -11 6z"/>
<path d="M1805 2930 c-11 -4 -24 -5 -30 -3 -5 3 4 -6 20 -21 32 -27 45 -32 45
-16 0 19 2 25 10 35 11 13 -16 16 -45 5z"/>
<path d="M1948 2928 c-20 -5 -20 -6 -3 -7 16 -1 15 -4 -10 -17 -16 -8 -37 -23
-47 -34 -16 -17 -16 -19 2 -35 22 -20 83 -26 120 -12 22 8 33 6 57 -11 16 -11
30 -27 31 -34 0 -7 3 -26 5 -43 2 -16 0 -40 -6 -52 -10 -23 -80 -63 -110 -63
-9 0 -17 -4 -17 -10 0 -5 3 -9 8 -8 4 1 25 -7 47 -17 22 -10 48 -22 58 -27 21
-9 93 51 109 92 41 104 -2 200 -109 240 -29 11 -57 19 -61 19 -22 -4 -52 2
-52 10 0 10 66 4 91 -10 11 -5 19 -7 19 -4 0 14 78 -36 99 -64 21 -27 30 -31
62 -29 21 2 35 6 31 10 -4 4 -57 32 -119 62 -112 56 -140 62 -205 44z"/>
<path d="M1748 2921 c-2 -5 -25 -11 -53 -14 -60 -7 -95 -17 -113 -31 -25 -21
-61 -61 -62 -71 -1 -5 -6 -15 -11 -21 -16 -20 -12 -99 6 -138 23 -48 96 -101
160 -117 54 -13 54 -14 189 -23 129 -10 195 -51 180 -111 -6 -23 -45 -57 -72
-61 -27 -5 -23 -12 12 -25 20 -7 36 -17 36 -21 0 -16 38 -8 64 13 44 35 60 86
44 148 -25 97 -113 144 -294 156 -99 6 -129 13 -176 36 -43 22 -54 39 -57 91
-3 62 58 113 104 87 6 -3 24 -5 40 -4 68 3 98 30 67 59 -51 47 -61 54 -64 47z"/>
<path d="M1842 2864 c4 -3 0 -21 -8 -41 -10 -23 -14 -64 -13 -118 2 -80 2 -82
26 -82 13 0 26 3 28 8 3 4 6 43 7 86 1 74 -19 153 -38 153 -4 0 -5 -3 -2 -6z"/>
<path d="M1603 2508 c-22 -34 -29 -57 -32 -96 -6 -93 87 -167 221 -174 45 -3
59 -10 40 -22 -4 -2 -7 -36 -6 -74 l1 -70 -29 8 c-31 9 -34 10 -46 10 -19 0
-51 37 -47 56 2 10 4 22 4 27 1 4 10 16 21 27 20 20 20 20 -16 35 -43 18 -51
14 -70 -31 -40 -95 16 -174 134 -190 l52 -7 0 -73 c0 -67 2 -73 21 -71 19 1
20 7 17 74 -3 80 1 85 52 58 42 -22 55 -72 26 -104 -12 -13 -30 -27 -41 -31
-16 -6 -14 -9 19 -20 34 -11 40 -10 60 9 80 76 20 212 -100 225 -13 2 -27 6
-32 11 -4 4 -1 5 6 1 9 -5 12 4 13 36 1 24 2 55 3 71 2 17 -2 27 -11 27 -7 0
-13 4 -13 9 0 11 80 4 95 -9 7 -5 14 -7 18 -4 8 8 28 -33 34 -67 3 -24 -1 -32
-27 -47 -23 -15 -27 -21 -18 -29 13 -10 45 -24 64 -28 18 -4 56 62 56 100 0
105 -71 163 -210 171 -79 5 -162 23 -162 36 0 3 -9 10 -20 13 -15 5 -20 15
-20 40 0 26 8 40 35 63 l35 28 -51 12 c-63 15 -66 15 -76 0z"/>
<path d="M1823 2414 c0 -64 3 -73 21 -78 32 -8 36 1 35 80 l-1 74 -28 -2 c-28
-2 -28 -2 -27 -74z"/>
<path d="M1704 2003 c-19 -13 -25 -62 -14 -104 14 -52 66 -86 150 -100 34 -5
68 -16 76 -24 22 -22 17 -63 -12 -90 -25 -23 -25 -23 -4 -30 39 -12 81 48 72
105 -6 40 -35 68 -85 80 -93 22 -121 35 -137 63 -14 25 -13 30 3 58 10 18 16
33 15 35 -9 8 -55 13 -64 7z"/>
<path d="M1739 1793 c-11 -61 -5 -96 21 -122 16 -15 49 -34 75 -41 26 -7 52
-22 60 -34 11 -18 12 -32 6 -81 0 -6 -10 -16 -22 -23 -20 -12 -20 -11 -17 53
2 45 0 65 -9 65 -15 0 -21 -37 -12 -71 4 -15 3 -33 -2 -40 -7 -11 -13 -9 -28
10 -21 27 -19 66 5 92 13 14 13 17 1 22 -19 7 -41 -21 -45 -56 -3 -33 32 -87
57 -87 14 0 17 -6 13 -29 -2 -16 1 -32 6 -35 7 -4 9 3 6 19 -3 20 3 29 30 47
36 24 46 43 46 90 0 30 -49 88 -74 88 -53 0 -93 51 -76 96 6 14 10 30 10 35 0
11 -49 12 -51 2z"/>
<path d="M1836 1778 c-2 -7 -3 -33 -3 -58 2 -33 6 -45 17 -45 19 0 22 106 3
112 -7 3 -15 -1 -17 -9z"/>
<path d="M2003 1185 c-205 -47 -256 -287 -87 -403 27 -18 136 -56 239 -82 117
-29 152 -75 113 -148 -31 -60 -153 -81 -234 -40 -41 20 -56 40 -83 110 -8 22
-15 26 -36 22 -14 -2 -49 -6 -78 -8 l-52 -4 3 -33 c6 -53 46 -132 88 -172 33
-31 97 -62 154 -74 28 -6 155 -5 190 2 52 10 52 10 90 27 150 66 190 268 77
390 -36 39 -95 66 -216 97 -148 39 -204 70 -196 110 2 9 4 21 4 27 1 17 72 50
112 53 60 4 116 -16 141 -50 13 -17 24 -35 24 -40 1 -5 2 -13 3 -19 1 -8 100
-8 164 -1 8 1 5 33 -9 81 -19 66 -97 134 -179 155 -48 13 -176 13 -232 0z"/>
<path d="M50 1180 c-4 -3 -7 -187 -6 -410 l1 -405 210 0 c250 1 287 9 365 85
76 74 111 173 110 312 0 107 -6 148 -32 213 -44 113 -126 183 -234 201 -47 8
-403 11 -414 4z m349 -145 c76 -9 129 -56 147 -131 11 -46 12 -202 2 -247 -14
-69 -28 -95 -65 -123 -33 -25 -44 -27 -154 -31 l-119 -4 0 270 0 270 23 3 c24
4 95 1 166 -7z"/>
<path d="M1191 1180 c-4 -3 -7 -187 -6 -410 l0 -405 83 0 82 -1 0 408 c0 224
-3 408 -7 409 -51 3 -147 3 -152 -1z"/>
<path d="M3160 1180 c-14 -3 -25 -10 -26 -15 0 -6 -4 -19 -9 -30 -5 -11 -32
-81 -60 -155 -28 -74 -55 -144 -60 -155 -5 -11 -9 -22 -10 -25 -1 -3 -5 -14
-10 -25 -70 -175 -155 -398 -155 -407 0 -5 39 -7 86 -6 l86 3 17 45 c10 25 25
66 34 91 l17 46 162 -1 c132 -1 162 -4 169 -16 9 -15 30 -67 35 -85 1 -5 9
-27 18 -47 l16 -38 90 0 89 0 -13 38 c-16 43 -112 283 -131 327 -7 17 -50 124
-96 240 -46 116 -84 212 -86 214 -4 6 -137 7 -163 1z m176 -487 c-2 -2 -50 -2
-108 -1 l-105 3 48 130 c27 72 52 137 55 145 3 9 28 -46 60 -130 29 -79 52
-146 50 -147z"/>
<path d="M870 441 l0 -79 79 -1 78 0 2 79 2 80 -80 0 -81 0 0 -79z"/>
<path d="M1509 505 c0 -8 -1 -35 -1 -60 0 -93 -7 -85 76 -84 46 1 76 6 79 13
2 6 3 40 2 76 l-1 65 -77 3 c-64 2 -77 0 -78 -13z"/>
<path d="M2519 505 c-1 -8 -1 -40 -1 -70 0 -30 0 -59 1 -65 1 -12 150 -14 152
-2 1 4 2 40 3 80 l2 72 -78 0 c-62 0 -78 -3 -79 -15z"/>
</g>
</svg>
